<svg fill="#d69935" id="icons" enable-background="new 0 0 64 64" height="512" viewBox="0 0 64 64" width="512" xmlns="http://www.w3.org/2000/svg"><g><g><g><g><path d="m4.028 58.998c-.553 0-1.005-.447-1.005-1s.442-1 .994-1h.011c.552 0 1 .447 1 1s-.448 1-1 1z"/></g><g><path d="m61.002 48.463c-.346 0-.682-.179-.866-.499-.277-.479-.113-1.09.364-1.366.926-.535 1.5-1.531 1.5-2.6 0-1.654-1.346-3-3-3-.553 0-1-.447-1-1s.447-1 1-1c2.757 0 5 2.243 5 5 0 1.779-.957 3.439-2.498 4.33-.158.092-.33.135-.5.135z"/></g><g><path d="m34.001 62.998c-.356 0-.701-.19-.882-.526-.262-.486-.079-1.093.407-1.354l27-14.537c.484-.262 1.092-.08 1.354.407.262.486.079 1.093-.407 1.354l-27 14.537c-.15.081-.312.119-.472.119z"/></g><g><path d="m34.001 62.998c-.045 0-.09-.003-.136-.009l-21.999-3c-.548-.075-.931-.579-.856-1.126.074-.548.574-.925 1.126-.856l21.999 3c.548.075.931.579.856 1.126-.068.502-.498.865-.99.865z"/></g><g><path d="m12.001 60.996h-2.993c-.553 0-1-.447-1-1s.447-1 1-1h1.993v-22.998h-1.993c-.553 0-1-.447-1-1s.447-1 1-1h2.993c.553 0 1 .447 1 1v24.998c0 .553-.447 1-1 1z"/></g><g><path d="m38.999 43.998c-.486 0-.912-.354-.987-.85-.083-.546.292-1.056.838-1.139l19.317-2.941c.544-.085 1.056.292 1.139.838s-.292 1.056-.838 1.139l-19.318 2.941c-.05.008-.101.012-.151.012z"/></g><g><path d="m35 47.998c-.553 0-1-.447-1-1s.447-1 1-1c1.654 0 3-1.346 3-3 0-1.465-1.044-2.708-2.483-2.956-.544-.094-.909-.611-.815-1.155s.612-.906 1.155-.815c2.401.412 4.143 2.485 4.143 4.926 0 2.757-2.243 5-5 5z"/></g><g><path d="m35.688 40.057c-.063 0-.128-.006-.192-.019l-15.688-3.059c-.542-.105-.896-.631-.79-1.173.104-.542.632-.898 1.173-.79l15.688 3.059c.542.105.896.631.79 1.173-.093.478-.512.809-.981.809z"/></g><g><path d="m20 36.998h-7.999c-.553 0-1-.447-1-1s.447-1 1-1h7.999c.553 0 1 .447 1 1s-.447 1-1 1z"/></g><g><path d="m34.58 47.975c-.025 0-.052-.001-.078-.003l-12.579-.977c-.551-.043-.963-.523-.92-1.074.043-.552.522-.964 1.074-.92l12.579.977c.551.043.963.523.92 1.074-.041.524-.478.923-.996.923z"/></g><g><path d="m58.315 41.055c-.479 0-.903-.346-.985-.835-.091-.545.276-1.061.821-1.151.279-.047.564-.07.849-.07.553 0 1 .447 1 1s-.447 1-1 1c-.177 0-.351.015-.519.043-.055.009-.111.013-.166.013z"/></g><g><path d="m35 47.998c-.18 0-.357-.01-.531-.03-.549-.062-.943-.558-.881-1.105.062-.549.55-.952 1.105-.881.102.011.203.017.307.017.553 0 1 .447 1 1s-.447.999-1 .999z"/></g></g><g><path d="m9.001 62.998h-8.001c-.553 0-1-.447-1-1s.447-1 1-1h7.001v-27h-7.001c-.553 0-1-.447-1-1s.447-1 1-1h8.001c.553 0 1 .447 1 1v29c0 .553-.447 1-1 1z"/></g></g><g><path d="m30.998 25.006c-1.654 0-3-1.346-3-3s1.346-3 3-3c.553 0 1 .447 1 1s-.447 1-1 1c-.552 0-1 .448-1 1s.448 1 1 1c.553 0 1 .447 1 1s-.447 1-1 1z"/></g><g><path d="m40.994 25.006c-.553 0-1-.447-1-1s.447-1 1-1c.552 0 1-.448 1-1s-.448-1-1-1c-.553 0-1-.447-1-1s.447-1 1-1c1.654 0 3 1.346 3 3s-1.346 3-3 3z"/></g><g><path d="m40.994 21.006h-9.996c-.553 0-1-.447-1-1s.447-1 1-1h9.996c.553 0 1 .447 1 1s-.447 1-1 1z"/></g><g><path d="m40.994 25.006h-9.996c-.553 0-1-.447-1-1s.447-1 1-1h9.996c.553 0 1 .447 1 1s-.447 1-1 1z"/></g><g><path d="m42.994 43.391c-.553 0-1-.447-1-1v-20.385c0-.553.447-1 1-1s1 .447 1 1v20.385c0 .552-.447 1-1 1z"/></g><g><path d="m28.998 38.752c-.553 0-1-.447-1-1v-15.746c0-.553.447-1 1-1s1 .447 1 1v15.746c0 .553-.447 1-1 1z"/></g><g><path d="m36 23.006c-.553 0-1-.447-1-1v-10.004c0-.553.447-1 1-1s1 .447 1 1v10.004c0 .553-.447 1-1 1z"/></g><g><path d="m36 18.006c-3.309 0-6-2.691-6-6 0-2.653 2.194-11.004 6-11.004s6 8.351 6 11.004c0 3.308-2.691 6-6 6zm0-15.004c-1.718 0-4 6.178-4 9.004 0 2.206 1.794 4 4 4s4-1.794 4-4c0-2.826-2.282-9.004-4-9.004z"/></g></g></svg>